<svg version="1" xmlns="http://www.w3.org/2000/svg" width="682.667" height="682.667" viewBox="0 0 512.000000 512.000000"><path d="M136.2 42.4C71.2 65.7 17.8 84.9 17.5 85.1c-.6.6 35.6 314.3 36.4 315 .3.4 45.9 25.7 101.2 56.3l100.6 55.7 99.9-55.2c55-30.4 100.4-55.7 101.1-56.3 1.5-1.4 37.8-314.5 36.6-315.7C492.3 84 256.6 0 255.4.1c-.5 0-54.1 19.1-119.2 42.3zm72.9 124.1c25.5 36.5 46.6 66.4 46.9 66.4.3 0 21.2-29.9 46.5-66.4l46-66.5h24.3c19.2 0 24.2.3 23.6 1.2-.4.7-26.9 38.6-58.8 84.3l-58.1 83-.5 78-.5 78-22.7.3-22.8.2V270.3l-52.9-75.6c-29.1-41.5-55.9-79.8-59.6-85.1l-6.6-9.6h48.8l46.4 66.5z"/></svg>